<svg id="_4" data-name="4" xmlns="http://www.w3.org/2000/svg" xmlns:xlink="http://www.w3.org/1999/xlink" viewBox="0 0 195 120"><defs><style>.cls-1{fill:none;}.cls-2{clip-path:url(#clip-path);}.cls-3,.cls-7{fill:#3c9242;}.cls-4{fill:#edc226;}.cls-5{fill:#2d146e;}.cls-6{fill:#fff;}.cls-7{fill-rule:evenodd;}</style><clipPath id="clip-path"><rect class="cls-1" width="195" height="120"/></clipPath></defs><g id="BRAZIL"><g class="cls-2"><rect class="cls-3" width="195" height="120"/><polygon class="cls-4" points="30.07 60 97.5 105.43 164.96 60 97.5 14.57 30.07 60"/><g class="cls-2"><path class="cls-5" d="M125.93,60c0,16.56-12.73,30-28.43,30S69.09,76.56,69.09,60,81.81,30,97.5,30s28.43,13.46,28.43,30"/><path class="cls-6" d="M81.26,47.13a68.42,68.42,0,0,0-9.78.73A33.77,33.77,0,0,0,70,52.45,62.54,62.54,0,0,1,124.64,69a28.05,28.05,0,0,0,1-4.75A66.62,66.62,0,0,0,81.26,47.13"/><path class="cls-7" d="M73.25,51.22a1.33,1.33,0,0,0,1-1.57,1.22,1.22,0,1,0-1,1.57m-.06-.52a.86.86,0,0,0,.6-1c-.05-.49-.4-.85-.81-.79a.91.91,0,0,0,.21,1.78"/><path class="cls-7" d="M75.46,51l.49,0-.07-1.06L77,49.8a.93.93,0,0,0,.79-1,.9.9,0,0,0-.91-.83l-1.57.11Zm.39-1.63,1-.07a.39.39,0,0,0,.32-.4.34.34,0,0,0-.35-.34l-1.06.06Z"/><path class="cls-3" d="M77.74,50.8c0-.4-.06-1.3-.66-1.27l-.73.06c.84-.06.91.85,1,1.24"/><path class="cls-7" d="M78.9,50.75l1.26,0a1.2,1.2,0,0,0,1.16-1.25l0-.41a1.2,1.2,0,0,0-1.18-1.2l-1.25,0Zm.48-.55h.73a.75.75,0,0,0,.72-.79v-.26a.74.74,0,0,0-.73-.74h-.75Z"/><polygon class="cls-3" points="82.31 50.71 84.76 50.8 84.78 50.26 82.82 50.19 82.84 49.47 84.39 49.51 84.39 49.02 82.86 48.97 82.86 48.4 84.73 48.47 84.73 47.93 82.42 47.85 82.31 50.71"/><polygon class="cls-3" points="85.77 50.86 86.23 50.9 86.39 48.95 86.75 50.95 87.2 50.99 87.89 49.09 87.73 51.04 88.18 51.09 88.42 48.23 87.76 48.17 87.05 50.08 86.67 48.07 85.99 48.01 85.77 50.86"/><polygon class="cls-3" points="91.36 51.53 93.39 51.89 93.45 51.41 91.92 51.13 92.02 50.49 93.29 50.72 93.35 50.23 92.11 50.01 92.17 49.56 93.66 49.83 93.72 49.35 91.79 48.99 91.36 51.53"/><path class="cls-7" d="M96.51,52.59l.48.14.27-1,1,.27a.86.86,0,0,0,1.06-.64,1,1,0,0,0-.61-1.1l-1.5-.41Zm.89-1.41,1,.28a.31.31,0,0,0,.4-.26.36.36,0,0,0-.23-.45l-1-.28Z"/><path class="cls-7" d="M99.84,53.53l.49.15.3-1,1,.34a.86.86,0,0,0,1.08-.58.9.9,0,0,0-.54-1.13l-1.5-.5Zm.94-1.36,1,.33a.34.34,0,0,0,.43-.24.35.35,0,0,0-.23-.46l-1-.33Z"/><path class="cls-3" d="M102,54.26c.12-.39.37-1.24-.17-1.43l-.69-.24c.79.28.54,1.13.41,1.52"/><path class="cls-7" d="M104.25,55.1a1.28,1.28,0,0,0,1.61-.89,1.36,1.36,0,0,0-.65-1.78,1.27,1.27,0,0,0-1.63.87,1.41,1.41,0,0,0,.67,1.8m.17-.5a.79.79,0,0,0,1-.58.85.85,0,0,0-.37-1.1.8.8,0,0,0-1,.58.87.87,0,0,0,.37,1.1"/><path class="cls-7" d="M107.44,56.46a1.29,1.29,0,0,0,1.67-.8,1.41,1.41,0,0,0-.59-1.82,1.26,1.26,0,0,0-1.65.79,1.42,1.42,0,0,0,.57,1.83m.2-.49a.76.76,0,0,0,1-.52.87.87,0,0,0-.3-1.13.76.76,0,0,0-1,.52.85.85,0,0,0,.3,1.13"/><polygon class="cls-3" points="108.16 55.23 109.11 55.66 108.93 56.03 108.01 55.59 108.16 55.23"/><polygon class="cls-3" points="108.75 55.49 109.11 55.66 108.55 56.97 108.22 56.8 108.75 55.49"/><path class="cls-7" d="M109.48,57.42l.45.23.44-1,1,.52a.83.83,0,0,0,1.14-.4.91.91,0,0,0-.38-1.2l-1.37-.73Zm1.11-1.19.94.49a.33.33,0,0,0,.46-.16.39.39,0,0,0-.15-.5l-1-.49Z"/><path class="cls-3" d="M111.53,58.5c.17-.36.54-1.17,0-1.44l-.67-.36c.78.41.4,1.21.24,1.57"/><polygon class="cls-3" points="112.54 59.06 114.67 60.33 114.9 59.87 113.19 58.84 113.52 58.2 114.87 59.01 115.1 58.57 113.76 57.78 114.03 57.27 115.63 58.24 115.91 57.78 113.86 56.57 112.54 59.06"/><path class="cls-3" d="M116.5,60.46c-.15.23,0,.51.31.73s.55.2.65.06c.3-.5-1.41-1.22-.88-2.07s1.22-.16,1.52,0a1,1,0,0,1,.39,1.3l-.5-.34c.17-.24,0-.5-.28-.66s-.45-.27-.6,0,1.43,1.13.9,2c-.36.62-1,.34-1.46.06s-.94-.86-.59-1.45Z"/><path class="cls-3" d="M119.4,62.48c-.17.23,0,.51.27.75s.56.25.66.1c.31-.47-1.37-1.29-.78-2.11s1.25-.1,1.52.11a1,1,0,0,1,.32,1.32l-.47-.37c.15-.24,0-.49-.26-.69s-.42-.27-.59,0,1.35,1.22.81,2c-.42.61-1.08.3-1.48,0s-.91-.9-.51-1.48Z"/><path class="cls-7" d="M122.14,65.77a1.24,1.24,0,0,0,1.79-.31,1.43,1.43,0,0,0-.1-1.92,1.24,1.24,0,0,0-1.8.32,1.41,1.41,0,0,0,.11,1.91m.31-.42a.76.76,0,0,0,1.1-.23.88.88,0,0,0,0-1.17.74.74,0,0,0-1.08.23.84.84,0,0,0,0,1.17"/><polygon class="cls-6" points="74.28 53.32 73.91 54.54 74.5 54.75 74.28 53.32"/><polygon class="cls-6" points="74.28 53.32 74.67 54.54 74.09 54.75 74.28 53.32"/><polygon class="cls-6" points="75.44 54.22 74.23 54.22 74.23 54.84 75.44 54.22"/><polygon class="cls-6" points="75.44 54.22 74.47 54.96 74.09 54.45 75.44 54.22"/><polygon class="cls-6" points="73.13 54.22 74.11 54.96 74.47 54.45 73.13 54.22"/><polygon class="cls-6" points="73.13 54.22 74.35 54.22 74.35 54.84 73.13 54.22"/><polygon class="cls-6" points="75 55.65 74.62 54.42 74.06 54.63 75 55.65"/><polygon class="cls-6" points="75 55.65 74.01 54.88 74.37 54.36 75 55.65"/><polygon class="cls-6" points="73.57 55.65 74.56 54.88 74.2 54.36 73.57 55.65"/><polygon class="cls-6" points="73.57 55.65 73.95 54.42 74.54 54.63 73.57 55.65"/><polygon class="cls-6" points="76.81 65.94 76.43 67.15 77.02 67.35 76.81 65.94"/><polygon class="cls-6" points="76.81 65.94 77.18 67.15 76.61 67.35 76.81 65.94"/><polygon class="cls-6" points="77.95 66.82 76.74 66.82 76.74 67.47 77.95 66.82"/><polygon class="cls-6" points="77.95 66.82 76.98 67.58 76.62 67.05 77.95 66.82"/><polygon class="cls-6" points="75.66 66.82 76.62 67.58 77.01 67.05 75.66 66.82"/><polygon class="cls-6" points="75.66 66.82 76.88 66.82 76.88 67.47 75.66 66.82"/><polygon class="cls-6" points="77.53 68.26 77.15 67.04 76.56 67.24 77.53 68.26"/><polygon class="cls-6" points="77.53 68.26 76.54 67.5 76.89 66.99 77.53 68.26"/><polygon class="cls-6" points="76.08 68.26 77.08 67.5 76.71 66.99 76.08 68.26"/><polygon class="cls-6" points="76.08 68.26 76.45 67.04 77.04 67.24 76.08 68.26"/><polygon class="cls-6" points="73.32 69.05 73.09 69.87 73.47 70 73.32 69.05"/><polygon class="cls-6" points="73.32 69.05 73.57 69.87 73.19 70 73.32 69.05"/><polygon class="cls-6" points="74.09 69.65 73.27 69.65 73.27 70.08 74.09 69.65"/><polygon class="cls-6" points="74.09 69.65 73.44 70.16 73.2 69.81 74.09 69.65"/><polygon class="cls-6" points="72.56 69.65 73.2 70.16 73.44 69.81 72.56 69.65"/><polygon class="cls-6" points="72.56 69.65 73.36 69.65 73.36 70.08 72.56 69.65"/><polygon class="cls-6" points="73.79 70.6 73.55 69.79 73.17 69.93 73.79 70.6"/><polygon class="cls-6" points="73.79 70.6 73.15 70.1 73.39 69.75 73.79 70.6"/><polygon class="cls-6" points="72.85 70.6 73.5 70.1 73.27 69.75 72.85 70.6"/><polygon class="cls-6" points="72.85 70.6 73.09 69.79 73.47 69.93 72.85 70.6"/><polygon class="cls-6" points="79.59 64.77 79.4 65.34 79.67 65.45 79.59 64.77"/><polygon class="cls-6" points="79.59 64.77 79.76 65.34 79.49 65.45 79.59 64.77"/><polygon class="cls-6" points="80.14 65.2 79.57 65.2 79.57 65.5 80.14 65.2"/><polygon class="cls-6" points="80.14 65.2 79.67 65.56 79.51 65.31 80.14 65.2"/><polygon class="cls-6" points="79.03 65.2 79.51 65.56 79.67 65.31 79.03 65.2"/><polygon class="cls-6" points="79.03 65.2 79.62 65.2 79.62 65.5 79.03 65.2"/><polygon class="cls-6" points="79.93 65.88 79.74 65.29 79.49 65.39 79.93 65.88"/><polygon class="cls-6" points="79.93 65.88 79.47 65.52 79.64 65.27 79.93 65.88"/><polygon class="cls-6" points="79.25 65.88 79.72 65.52 79.55 65.27 79.25 65.88"/><polygon class="cls-6" points="79.25 65.88 79.42 65.29 79.69 65.39 79.25 65.88"/><polygon class="cls-6" points="82.74 69.13 82.42 70.15 82.87 70.32 82.74 69.13"/><polygon class="cls-6" points="82.74 69.13 83.03 70.15 82.57 70.32 82.74 69.13"/><polygon class="cls-6" points="83.68 69.87 82.67 69.87 82.67 70.4 83.68 69.87"/><polygon class="cls-6" points="83.68 69.87 82.86 70.5 82.57 70.06 83.68 69.87"/><polygon class="cls-6" points="81.76 69.87 82.58 70.5 82.87 70.06 81.76 69.87"/><polygon class="cls-6" points="81.76 69.87 82.77 69.87 82.77 70.4 81.76 69.87"/><polygon class="cls-6" points="83.33 71.05 83.01 70.05 82.52 70.22 83.33 71.05"/><polygon class="cls-6" points="83.33 71.05 82.5 70.43 82.79 70 83.33 71.05"/><polygon class="cls-6" points="82.15 71.05 82.94 70.43 82.65 70 82.15 71.05"/><polygon class="cls-6" points="82.15 71.05 82.44 70.05 82.92 70.22 82.15 71.05"/><polygon class="cls-6" points="81.87 72.11 81.56 73.13 82.03 73.3 81.87 72.11"/><polygon class="cls-6" points="81.87 72.11 82.18 73.13 81.7 73.3 81.87 72.11"/><polygon class="cls-6" points="82.84 72.86 81.83 72.86 81.83 73.38 82.84 72.86"/><polygon class="cls-6" points="82.84 72.86 82.01 73.48 81.72 73.05 82.84 72.86"/><polygon class="cls-6" points="80.92 72.86 81.74 73.48 82.03 73.05 80.92 72.86"/><polygon class="cls-6" points="80.92 72.86 81.93 72.86 81.93 73.38 80.92 72.86"/><polygon class="cls-6" points="82.46 74.05 82.17 73.02 81.68 73.19 82.46 74.05"/><polygon class="cls-6" points="82.46 74.05 81.64 73.41 81.95 72.99 82.46 74.05"/><polygon class="cls-6" points="81.28 74.05 82.1 73.41 81.81 72.99 81.28 74.05"/><polygon class="cls-6" points="81.28 74.05 81.59 73.02 82.08 73.19 81.28 74.05"/><polygon class="cls-6" points="106.32 49.4 105.94 50.63 106.53 50.82 106.32 49.4"/><polygon class="cls-6" points="106.32 49.4 106.7 50.63 106.11 50.82 106.32 49.4"/><polygon class="cls-6" points="107.47 50.29 106.26 50.29 106.26 50.94 107.47 50.29"/><polygon class="cls-6" points="107.47 50.29 106.49 51.05 106.14 50.52 107.47 50.29"/><polygon class="cls-6" points="105.16 50.29 106.16 51.05 106.51 50.52 105.16 50.29"/><polygon class="cls-6" points="105.16 50.29 106.39 50.29 106.39 50.94 105.16 50.29"/><polygon class="cls-6" points="107.04 51.74 106.66 50.51 106.09 50.71 107.04 51.74"/><polygon class="cls-6" points="107.04 51.74 106.05 50.98 106.41 50.45 107.04 51.74"/><polygon class="cls-6" points="105.6 51.74 106.59 50.98 106.24 50.45 105.6 51.74"/><polygon class="cls-6" points="105.6 51.74 105.99 50.51 106.58 50.71 105.6 51.74"/><polygon class="cls-6" points="117.42 69.25 117.04 70.47 117.63 70.67 117.42 69.25"/><polygon class="cls-6" points="117.42 69.25 117.8 70.47 117.23 70.67 117.42 69.25"/><polygon class="cls-6" points="118.58 70.13 117.36 70.13 117.36 70.77 118.58 70.13"/><polygon class="cls-6" points="118.58 70.13 117.61 70.89 117.23 70.36 118.58 70.13"/><polygon class="cls-6" points="116.26 70.13 117.26 70.89 117.61 70.36 116.26 70.13"/><polygon class="cls-6" points="116.26 70.13 117.48 70.13 117.48 70.77 116.26 70.13"/><polygon class="cls-6" points="118.16 71.57 117.78 70.35 117.19 70.54 118.16 71.57"/><polygon class="cls-6" points="118.16 71.57 117.17 70.81 117.53 70.29 118.16 71.57"/><polygon class="cls-6" points="116.71 71.57 117.7 70.81 117.34 70.29 116.71 71.57"/><polygon class="cls-6" points="116.71 71.57 117.09 70.35 117.68 70.54 116.71 71.57"/><polygon class="cls-6" points="121.39 69.96 121.11 70.77 121.52 70.9 121.39 69.96"/><polygon class="cls-6" points="121.39 69.96 121.64 70.77 121.23 70.9 121.39 69.96"/><polygon class="cls-6" points="122.14 70.55 121.34 70.55 121.34 70.97 122.14 70.55"/><polygon class="cls-6" points="122.14 70.55 121.49 71.05 121.25 70.7 122.14 70.55"/><polygon class="cls-6" points="120.6 70.55 121.25 71.05 121.51 70.7 120.6 70.55"/><polygon class="cls-6" points="120.6 70.55 121.42 70.55 121.42 70.97 120.6 70.55"/><polygon class="cls-6" points="121.84 71.5 121.61 70.68 121.22 70.83 121.84 71.5"/><polygon class="cls-6" points="121.84 71.5 121.19 71 121.44 70.65 121.84 71.5"/><polygon class="cls-6" points="120.9 71.5 121.55 71 121.32 70.65 120.9 71.5"/><polygon class="cls-6" points="120.9 71.5 121.15 70.68 121.52 70.83 120.9 71.5"/><polygon class="cls-6" points="118.58 72.11 118.29 73.13 118.75 73.3 118.58 72.11"/><polygon class="cls-6" points="118.58 72.11 118.89 73.13 118.44 73.3 118.58 72.11"/><polygon class="cls-6" points="119.55 72.86 118.54 72.86 118.54 73.38 119.55 72.86"/><polygon class="cls-6" points="119.55 72.86 118.75 73.48 118.44 73.05 119.55 72.86"/><polygon class="cls-6" points="117.63 72.86 118.46 73.48 118.75 73.05 117.63 72.86"/><polygon class="cls-6" points="117.63 72.86 118.64 72.86 118.64 73.38 117.63 72.86"/><polygon class="cls-6" points="119.19 74.05 118.88 73.02 118.39 73.19 119.19 74.05"/><polygon class="cls-6" points="119.19 74.05 118.37 73.41 118.66 72.99 119.19 74.05"/><polygon class="cls-6" points="117.99 74.05 118.81 73.41 118.52 72.99 117.99 74.05"/><polygon class="cls-6" points="117.99 74.05 118.3 73.02 118.79 73.19 117.99 74.05"/><polygon class="cls-6" points="111.74 78.39 111.42 79.4 111.9 79.58 111.74 78.39"/><polygon class="cls-6" points="111.74 78.39 112.05 79.4 111.56 79.58 111.74 78.39"/><polygon class="cls-6" points="112.71 79.14 111.7 79.14 111.7 79.68 112.71 79.14"/><polygon class="cls-6" points="112.71 79.14 111.88 79.76 111.58 79.33 112.71 79.14"/><polygon class="cls-6" points="110.79 79.14 111.61 79.76 111.88 79.33 110.79 79.14"/><polygon class="cls-6" points="110.79 79.14 111.8 79.14 111.8 79.68 110.79 79.14"/><polygon class="cls-6" points="112.32 80.33 112.04 79.31 111.53 79.47 112.32 80.33"/><polygon class="cls-6" points="112.32 80.33 111.5 79.7 111.8 79.27 112.32 80.33"/><polygon class="cls-6" points="111.15 80.33 111.97 79.7 111.67 79.27 111.15 80.33"/><polygon class="cls-6" points="111.15 80.33 111.46 79.31 111.94 79.47 111.15 80.33"/><polygon class="cls-6" points="111.7 81.64 111.46 82.44 111.84 82.58 111.7 81.64"/><polygon class="cls-6" points="111.7 81.64 111.94 82.44 111.56 82.58 111.7 81.64"/><polygon class="cls-6" points="112.47 82.23 111.67 82.23 111.67 82.65 112.47 82.23"/><polygon class="cls-6" points="112.47 82.23 111.8 82.72 111.56 82.38 112.47 82.23"/><polygon class="cls-6" points="110.94 82.23 111.58 82.72 111.82 82.38 110.94 82.23"/><polygon class="cls-6" points="110.94 82.23 111.74 82.23 111.74 82.65 110.94 82.23"/><polygon class="cls-6" points="112.17 83.17 111.92 82.37 111.53 82.49 112.17 83.17"/><polygon class="cls-6" points="112.17 83.17 111.5 82.68 111.75 82.33 112.17 83.17"/><polygon class="cls-6" points="111.23 83.17 111.88 82.68 111.63 82.33 111.23 83.17"/><polygon class="cls-6" points="111.23 83.17 111.48 82.37 111.86 82.49 111.23 83.17"/><polygon class="cls-6" points="114.58 76.24 114.31 77.06 114.68 77.19 114.58 76.24"/><polygon class="cls-6" points="114.58 76.24 114.81 77.06 114.43 77.19 114.58 76.24"/><polygon class="cls-6" points="115.34 76.83 114.51 76.83 114.51 77.26 115.34 76.83"/><polygon class="cls-6" points="115.34 76.83 114.68 77.34 114.43 77 115.34 76.83"/><polygon class="cls-6" points="113.8 76.83 114.45 77.34 114.68 77 113.8 76.83"/><polygon class="cls-6" points="113.8 76.83 114.62 76.83 114.62 77.26 113.8 76.83"/><polygon class="cls-6" points="115.04 77.79 114.78 76.98 114.41 77.11 115.04 77.79"/><polygon class="cls-6" points="115.04 77.79 114.39 77.29 114.65 76.94 115.04 77.79"/><polygon class="cls-6" points="114.09 77.79 114.75 77.29 114.51 76.94 114.09 77.79"/><polygon class="cls-6" points="114.09 77.79 114.35 76.98 114.73 77.11 114.09 77.79"/><polygon class="cls-6" points="116.85 74.52 116.54 75.53 117.01 75.7 116.85 74.52"/><polygon class="cls-6" points="116.85 74.52 117.17 75.53 116.67 75.7 116.85 74.52"/><polygon class="cls-6" points="117.8 75.26 116.79 75.26 116.79 75.79 117.8 75.26"/><polygon class="cls-6" points="117.8 75.26 117.01 75.89 116.71 75.45 117.8 75.26"/><polygon class="cls-6" points="115.88 75.26 116.71 75.89 117.01 75.45 115.88 75.26"/><polygon class="cls-6" points="115.88 75.26 116.89 75.26 116.89 75.79 115.88 75.26"/><polygon class="cls-6" points="117.44 76.44 117.14 75.44 116.64 75.6 117.44 76.44"/><polygon class="cls-6" points="117.44 76.44 116.62 75.82 116.92 75.39 117.44 76.44"/><polygon class="cls-6" points="116.25 76.44 117.09 75.82 116.77 75.39 116.25 76.44"/><polygon class="cls-6" points="116.25 76.44 116.58 75.44 117.04 75.6 116.25 76.44"/><polygon class="cls-6" points="111.61 75.67 111.38 76.48 111.75 76.62 111.61 75.67"/><polygon class="cls-6" points="111.61 75.67 111.88 76.48 111.48 76.62 111.61 75.67"/><polygon class="cls-6" points="112.41 76.27 111.58 76.27 111.58 76.69 112.41 76.27"/><polygon class="cls-6" points="112.41 76.27 111.74 76.76 111.5 76.41 112.41 76.27"/><polygon class="cls-6" points="110.86 76.27 111.5 76.76 111.74 76.41 110.86 76.27"/><polygon class="cls-6" points="110.86 76.27 111.67 76.27 111.67 76.69 110.86 76.27"/><polygon class="cls-6" points="112.11 77.23 111.86 76.41 111.46 76.53 112.11 77.23"/><polygon class="cls-6" points="112.11 77.23 111.45 76.71 111.67 76.38 112.11 77.23"/><polygon class="cls-6" points="111.15 77.23 111.8 76.71 111.56 76.38 111.15 77.23"/><polygon class="cls-6" points="111.15 77.23 111.4 76.41 111.8 76.53 111.15 77.23"/><polygon class="cls-6" points="86.67 60.15 86.36 61.16 86.84 61.33 86.67 60.15"/><polygon class="cls-6" points="86.67 60.15 86.98 61.16 86.5 61.33 86.67 60.15"/><polygon class="cls-6" points="87.64 60.89 86.63 60.89 86.63 61.42 87.64 60.89"/><polygon class="cls-6" points="87.64 60.89 86.82 61.53 86.53 61.09 87.64 60.89"/><polygon class="cls-6" points="85.7 60.89 86.53 61.53 86.82 61.09 85.7 60.89"/><polygon class="cls-6" points="85.7 60.89 86.71 60.89 86.71 61.42 85.7 60.89"/><polygon class="cls-6" points="87.26 62.09 86.97 61.08 86.48 61.24 87.26 62.09"/><polygon class="cls-6" points="87.26 62.09 86.44 61.46 86.73 61.02 87.26 62.09"/><polygon class="cls-6" points="86.06 62.09 86.9 61.46 86.61 61.02 86.06 62.09"/><polygon class="cls-6" points="86.06 62.09 86.39 61.08 86.86 61.24 86.06 62.09"/><polygon class="cls-6" points="105.23 57.62 105 58.44 105.38 58.57 105.23 57.62"/><polygon class="cls-6" points="105.23 57.62 105.5 58.44 105.1 58.57 105.23 57.62"/><polygon class="cls-6" points="106.02 58.23 105.2 58.23 105.2 58.64 106.02 58.23"/><polygon class="cls-6" points="106.02 58.23 105.35 58.73 105.13 58.38 106.02 58.23"/><polygon class="cls-6" points="104.47 58.23 105.13 58.73 105.35 58.38 104.47 58.23"/><polygon class="cls-6" points="104.47 58.23 105.3 58.23 105.3 58.64 104.47 58.23"/><polygon class="cls-6" points="105.73 59.18 105.45 58.36 105.08 58.5 105.73 59.18"/><polygon class="cls-6" points="105.73 59.18 105.06 58.67 105.3 58.32 105.73 59.18"/><polygon class="cls-6" points="104.76 59.18 105.42 58.67 105.18 58.32 104.76 59.18"/><polygon class="cls-6" points="104.76 59.18 105.01 58.36 105.4 58.5 104.76 59.18"/><polygon class="cls-6" points="97.5 72.18 97.11 73.4 97.7 73.6 97.5 72.18"/><polygon class="cls-6" points="97.5 72.18 97.87 73.4 97.31 73.6 97.5 72.18"/><polygon class="cls-6" points="98.66 73.06 97.45 73.06 97.45 73.71 98.66 73.06"/><polygon class="cls-6" points="98.66 73.06 97.68 73.83 97.33 73.3 98.66 73.06"/><polygon class="cls-6" points="96.34 73.06 97.35 73.83 97.68 73.3 96.34 73.06"/><polygon class="cls-6" points="96.34 73.06 97.56 73.06 97.56 73.71 96.34 73.06"/><polygon class="cls-6" points="98.22 74.51 97.85 73.29 97.26 73.48 98.22 74.51"/><polygon class="cls-6" points="98.22 74.51 97.24 73.75 97.58 73.23 98.22 74.51"/><polygon class="cls-6" points="96.78 74.51 97.77 73.75 97.41 73.23 96.78 74.51"/><polygon class="cls-6" points="96.78 74.51 97.16 73.29 97.75 73.48 96.78 74.51"/><polygon class="cls-6" points="100.8 66.44 100.48 67.45 100.97 67.61 100.8 66.44"/><polygon class="cls-6" points="100.8 66.44 101.12 67.45 100.63 67.61 100.8 66.44"/><polygon class="cls-6" points="101.75 67.18 100.73 67.18 100.73 67.7 101.75 67.18"/><polygon class="cls-6" points="101.75 67.18 100.93 67.8 100.63 67.37 101.75 67.18"/><polygon class="cls-6" points="99.84 67.18 100.66 67.8 100.95 67.37 99.84 67.18"/><polygon class="cls-6" points="99.84 67.18 100.85 67.18 100.85 67.7 99.84 67.18"/><polygon class="cls-6" points="101.39 68.37 101.07 67.35 100.6 67.52 101.39 68.37"/><polygon class="cls-6" points="101.39 68.37 100.58 67.74 100.87 67.3 101.39 68.37"/><polygon class="cls-6" points="100.19 68.37 101.02 67.74 100.72 67.3 100.19 68.37"/><polygon class="cls-6" points="100.19 68.37 100.51 67.35 101 67.52 100.19 68.37"/><polygon class="cls-6" points="97.5 63.75 97.18 64.76 97.67 64.92 97.5 63.75"/><polygon class="cls-6" points="97.5 63.75 97.81 64.76 97.35 64.92 97.5 63.75"/><polygon class="cls-6" points="98.46 64.48 97.45 64.48 97.45 65.02 98.46 64.48"/><polygon class="cls-6" points="98.46 64.48 97.65 65.1 97.35 64.68 98.46 64.48"/><polygon class="cls-6" points="96.55 64.48 97.38 65.1 97.65 64.68 96.55 64.48"/><polygon class="cls-6" points="96.55 64.48 97.56 64.48 97.56 65.02 96.55 64.48"/><polygon class="cls-6" points="98.1 65.68 97.8 64.66 97.31 64.81 98.1 65.68"/><polygon class="cls-6" points="98.1 65.68 97.28 65.05 97.58 64.61 98.1 65.68"/><polygon class="cls-6" points="96.91 65.68 97.73 65.05 97.43 64.61 96.91 65.68"/><polygon class="cls-6" points="96.91 65.68 97.22 64.66 97.7 64.81 96.91 65.68"/><polygon class="cls-6" points="94.63 66.65 94.38 67.47 94.78 67.6 94.63 66.65"/><polygon class="cls-6" points="94.63 66.65 94.9 67.47 94.5 67.6 94.63 66.65"/><polygon class="cls-6" points="95.41 67.24 94.61 67.24 94.61 67.66 95.41 67.24"/><polygon class="cls-6" points="95.41 67.24 94.75 67.74 94.5 67.39 95.41 67.24"/><polygon class="cls-6" points="93.88 67.24 94.53 67.74 94.75 67.39 93.88 67.24"/><polygon class="cls-6" points="93.88 67.24 94.67 67.24 94.67 67.66 93.88 67.24"/><polygon class="cls-6" points="95.12 68.2 94.88 67.38 94.48 67.52 95.12 68.2"/><polygon class="cls-6" points="95.12 68.2 94.47 67.69 94.72 67.35 95.12 68.2"/><polygon class="cls-6" points="94.17 68.2 94.82 67.69 94.58 67.35 94.17 68.2"/><polygon class="cls-6" points="94.17 68.2 94.42 67.38 94.8 67.52 94.17 68.2"/><polygon class="cls-6" points="96.08 68.98 95.9 69.56 96.17 69.65 96.08 68.98"/><polygon class="cls-6" points="96.08 68.98 96.25 69.56 95.98 69.65 96.08 68.98"/><polygon class="cls-6" points="96.63 69.39 96.05 69.39 96.05 69.7 96.63 69.39"/><polygon class="cls-6" points="96.63 69.39 96.17 69.76 96 69.51 96.63 69.39"/><polygon class="cls-6" points="95.51 69.39 96 69.76 96.17 69.51 95.51 69.39"/><polygon class="cls-6" points="95.51 69.39 96.1 69.39 96.1 69.7 95.51 69.39"/><polygon class="cls-6" points="96.4 70.09 96.23 69.5 95.96 69.59 96.4 70.09"/><polygon class="cls-6" points="96.4 70.09 95.93 69.72 96.13 69.47 96.4 70.09"/><polygon class="cls-6" points="95.73 70.09 96.19 69.72 96.03 69.47 95.73 70.09"/><polygon class="cls-6" points="95.73 70.09 95.92 69.5 96.19 69.59 95.73 70.09"/><polygon class="cls-6" points="106.02 79.12 105.7 80.14 106.19 80.32 106.02 79.12"/><polygon class="cls-6" points="106.02 79.12 106.34 80.14 105.84 80.32 106.02 79.12"/><polygon class="cls-6" points="106.97 79.86 105.97 79.86 105.97 80.41 106.97 79.86"/><polygon class="cls-6" points="106.97 79.86 106.16 80.5 105.86 80.06 106.97 79.86"/><polygon class="cls-6" points="105.06 79.86 105.86 80.5 106.18 80.06 105.06 79.86"/><polygon class="cls-6" points="105.06 79.86 106.07 79.86 106.07 80.41 105.06 79.86"/><polygon class="cls-6" points="106.61 81.07 106.29 80.04 105.82 80.22 106.61 81.07"/><polygon class="cls-6" points="106.61 81.07 105.8 80.44 106.09 80.01 106.61 81.07"/><polygon class="cls-6" points="105.42 81.07 106.24 80.44 105.94 80.01 105.42 81.07"/><polygon class="cls-6" points="105.42 81.07 105.73 80.04 106.22 80.22 105.42 81.07"/><polygon class="cls-6" points="108.45 76.69 108.2 77.51 108.58 77.64 108.45 76.69"/><polygon class="cls-6" points="108.45 76.69 108.7 77.51 108.3 77.64 108.45 76.69"/><polygon class="cls-6" points="109.22 77.29 108.41 77.29 108.41 77.7 109.22 77.29"/><polygon class="cls-6" points="109.22 77.29 108.58 77.78 108.33 77.45 109.22 77.29"/><polygon class="cls-6" points="107.67 77.29 108.33 77.78 108.58 77.45 107.67 77.29"/><polygon class="cls-6" points="107.67 77.29 108.5 77.29 108.5 77.7 107.67 77.29"/><polygon class="cls-6" points="108.93 78.24 108.68 77.42 108.3 77.56 108.93 78.24"/><polygon class="cls-6" points="108.93 78.24 108.28 77.73 108.52 77.39 108.93 78.24"/><polygon class="cls-6" points="107.98 78.24 108.63 77.73 108.38 77.39 107.98 78.24"/><polygon class="cls-6" points="107.98 78.24 108.23 77.42 108.62 77.56 107.98 78.24"/><polygon class="cls-6" points="103.78 75.95 103.53 76.76 103.9 76.91 103.78 75.95"/><polygon class="cls-6" points="103.78 75.95 104.03 76.76 103.65 76.91 103.78 75.95"/><polygon class="cls-6" points="104.53 76.54 103.73 76.54 103.73 76.98 104.53 76.54"/><polygon class="cls-6" points="104.53 76.54 103.88 77.06 103.65 76.7 104.53 76.54"/><polygon class="cls-6" points="102.99 76.54 103.65 77.06 103.88 76.7 102.99 76.54"/><polygon class="cls-6" points="102.99 76.54 103.82 76.54 103.82 76.98 102.99 76.54"/><polygon class="cls-6" points="104.25 77.51 104 76.69 103.61 76.83 104.25 77.51"/><polygon class="cls-6" points="104.25 77.51 103.58 77 103.83 76.66 104.25 77.51"/><polygon class="cls-6" points="103.29 77.51 103.94 77 103.71 76.66 103.29 77.51"/><polygon class="cls-6" points="103.29 77.51 103.54 76.69 103.94 76.83 103.29 77.51"/><polygon class="cls-6" points="86.08 74.63 85.72 75.84 86.29 76.05 86.08 74.63"/><polygon class="cls-6" points="86.08 74.63 86.46 75.84 85.89 76.05 86.08 74.63"/><polygon class="cls-6" points="87.26 75.52 86.04 75.52 86.04 76.17 87.26 75.52"/><polygon class="cls-6" points="87.26 75.52 86.25 76.27 85.91 75.75 87.26 75.52"/><polygon class="cls-6" points="84.92 75.52 85.94 76.27 86.27 75.75 84.92 75.52"/><polygon class="cls-6" points="84.92 75.52 86.14 75.52 86.14 76.17 84.92 75.52"/><polygon class="cls-6" points="86.8 76.95 86.44 75.74 85.87 75.93 86.8 76.95"/><polygon class="cls-6" points="86.8 76.95 85.82 76.2 86.16 75.68 86.8 76.95"/><polygon class="cls-6" points="85.37 76.95 86.36 76.2 85.99 75.68 85.37 76.95"/><polygon class="cls-6" points="85.37 76.95 85.77 75.74 86.33 75.93 85.37 76.95"/><polygon class="cls-6" points="97.5 83.03 97.38 83.44 97.56 83.51 97.5 83.03"/><polygon class="cls-6" points="97.5 83.03 97.63 83.44 97.45 83.51 97.5 83.03"/><polygon class="cls-6" points="97.9 83.34 97.48 83.34 97.48 83.55 97.9 83.34"/><polygon class="cls-6" points="97.9 83.34 97.56 83.59 97.45 83.41 97.9 83.34"/><polygon class="cls-6" points="97.11 83.34 97.45 83.59 97.56 83.41 97.11 83.34"/><polygon class="cls-6" points="97.11 83.34 97.51 83.34 97.51 83.55 97.11 83.34"/><polygon class="cls-6" points="97.73 83.81 97.63 83.4 97.43 83.47 97.73 83.81"/><polygon class="cls-6" points="97.73 83.81 97.41 83.56 97.51 83.4 97.73 83.81"/><polygon class="cls-6" points="97.26 83.81 97.58 83.56 97.48 83.4 97.26 83.81"/><polygon class="cls-6" points="97.26 83.81 97.4 83.4 97.58 83.47 97.26 83.81"/></g></g></g></svg>