<svg id="_4" data-name="4" xmlns="http://www.w3.org/2000/svg" xmlns:xlink="http://www.w3.org/1999/xlink" viewBox="0 0 195 120"><defs><style>.cls-1{fill:none;}.cls-2{clip-path:url(#clip-path);}.cls-3{fill:#cb001c;}.cls-4{fill:#fff;}.cls-5{fill:#2a3560;}</style><clipPath id="clip-path"><rect class="cls-1" width="195" height="120"/></clipPath></defs><g id="USA"><g class="cls-2"><rect class="cls-3" y="110.77" width="195" height="9.23"/><rect class="cls-4" y="101.54" width="195" height="9.23"/><rect class="cls-3" y="92.32" width="195" height="9.22"/><rect class="cls-4" y="83.09" width="195" height="9.23"/><rect class="cls-3" y="73.85" width="195" height="9.24"/><rect class="cls-4" y="64.63" width="195" height="9.22"/><rect class="cls-3" y="55.39" width="195" height="9.24"/><rect class="cls-4" y="46.16" width="195" height="9.22"/><rect class="cls-3" y="36.93" width="195" height="9.23"/><rect class="cls-4" y="27.7" width="195" height="9.24"/><rect class="cls-3" y="18.47" width="195" height="9.23"/><rect class="cls-4" y="9.24" width="195" height="9.23"/><rect class="cls-3" width="195" height="9.24"/><rect class="cls-5" width="89.05" height="64.63"/><polygon class="cls-4" points="8.04 7.12 8.81 9.57 11.24 9.57 9.27 11.08 10.02 13.52 8.04 12.01 6.07 13.52 6.84 11.08 4.87 9.57 7.29 9.57 8.04 7.12"/><polygon class="cls-4" points="8.04 17.91 8.81 20.35 11.24 20.35 9.27 21.85 10.02 24.31 8.04 22.79 6.07 24.31 6.84 21.85 4.87 20.35 7.29 20.35 8.04 17.91"/><polygon class="cls-4" points="8.04 28.7 8.81 31.14 11.24 31.14 9.27 32.65 10.02 35.09 8.04 33.58 6.07 35.09 6.84 32.65 4.87 31.14 7.29 31.14 8.04 28.7"/><polygon class="cls-4" points="8.04 39.48 8.81 41.93 11.24 41.93 9.27 43.44 10.02 45.87 8.04 44.37 6.07 45.87 6.84 43.44 4.87 41.93 7.29 41.93 8.04 39.48"/><polygon class="cls-4" points="8.04 50.27 8.81 52.72 11.24 52.72 9.27 54.22 10.02 56.66 8.04 55.15 6.07 56.66 6.84 54.22 4.87 52.72 7.29 52.72 8.04 50.27"/><polygon class="cls-4" points="15.17 12.8 15.9 15.25 18.35 15.25 16.39 16.77 17.12 19.2 15.17 17.7 13.21 19.2 13.95 16.77 11.98 15.25 14.42 15.25 15.17 12.8"/><polygon class="cls-4" points="15.17 23.59 15.9 26.03 18.35 26.03 16.39 27.55 17.12 29.98 15.17 28.49 13.21 29.98 13.95 27.55 11.98 26.03 14.42 26.03 15.17 23.59"/><polygon class="cls-4" points="15.17 34.38 15.9 36.82 18.35 36.82 16.39 38.33 17.12 40.77 15.17 39.27 13.21 40.77 13.95 38.33 11.98 36.82 14.42 36.82 15.17 34.38"/><polygon class="cls-4" points="15.17 45.17 15.9 47.61 18.35 47.61 16.39 49.12 17.12 51.55 15.17 50.04 13.21 51.55 13.95 49.12 11.98 47.61 14.42 47.61 15.17 45.17"/><polygon class="cls-4" points="22.37 7.12 23.13 9.57 25.57 9.57 23.59 11.08 24.35 13.52 22.37 12.01 20.41 13.52 21.16 11.08 19.19 9.57 21.62 9.57 22.37 7.12"/><polygon class="cls-4" points="22.37 17.91 23.13 20.35 25.57 20.35 23.59 21.85 24.35 24.31 22.37 22.79 20.41 24.31 21.16 21.85 19.19 20.35 21.62 20.35 22.37 17.91"/><polygon class="cls-4" points="22.37 28.7 23.13 31.14 25.57 31.14 23.59 32.65 24.35 35.09 22.37 33.58 20.41 35.09 21.16 32.65 19.19 31.14 21.62 31.14 22.37 28.7"/><polygon class="cls-4" points="22.37 39.48 23.13 41.93 25.57 41.93 23.59 43.44 24.35 45.87 22.37 44.37 20.41 45.87 21.16 43.44 19.19 41.93 21.62 41.93 22.37 39.48"/><polygon class="cls-4" points="22.37 50.27 23.13 52.72 25.57 52.72 23.59 54.22 24.35 56.66 22.37 55.15 20.41 56.66 21.16 54.22 19.19 52.72 21.62 52.72 22.37 50.27"/><polygon class="cls-4" points="29.49 12.8 30.24 15.25 32.69 15.25 30.7 16.77 31.47 19.2 29.49 17.7 27.53 19.2 28.29 16.77 26.3 15.25 28.74 15.25 29.49 12.8"/><polygon class="cls-4" points="29.49 23.59 30.24 26.03 32.69 26.03 30.7 27.55 31.47 29.98 29.49 28.49 27.53 29.98 28.29 27.55 26.3 26.03 28.74 26.03 29.49 23.59"/><polygon class="cls-4" points="29.49 34.38 30.24 36.82 32.69 36.82 30.7 38.33 31.47 40.77 29.49 39.27 27.53 40.77 28.29 38.33 26.3 36.82 28.74 36.82 29.49 34.38"/><polygon class="cls-4" points="29.49 45.17 30.24 47.61 32.69 47.61 30.7 49.12 31.47 51.55 29.49 50.04 27.53 51.55 28.29 49.12 26.3 47.61 28.74 47.61 29.49 45.17"/><polygon class="cls-4" points="36.71 7.12 37.47 9.57 39.88 9.57 37.91 11.08 38.69 13.52 36.71 12.01 34.73 13.52 35.48 11.08 33.53 9.57 35.96 9.57 36.71 7.12"/><polygon class="cls-4" points="36.71 17.91 37.47 20.35 39.88 20.35 37.91 21.85 38.69 24.31 36.71 22.79 34.73 24.31 35.48 21.85 33.53 20.35 35.96 20.35 36.71 17.91"/><polygon class="cls-4" points="36.71 28.7 37.47 31.14 39.88 31.14 37.91 32.65 38.69 35.09 36.71 33.58 34.73 35.09 35.48 32.65 33.53 31.14 35.96 31.14 36.71 28.7"/><polygon class="cls-4" points="36.71 39.48 37.47 41.93 39.88 41.93 37.91 43.44 38.69 45.87 36.71 44.37 34.73 45.87 35.48 43.44 33.53 41.93 35.96 41.93 36.71 39.48"/><polygon class="cls-4" points="36.71 50.27 37.47 52.72 39.88 52.72 37.91 54.22 38.69 56.66 36.71 55.15 34.73 56.66 35.48 54.22 33.53 52.72 35.96 52.72 36.71 50.27"/><polygon class="cls-4" points="43.83 12.8 44.58 15.25 47.01 15.25 45.05 16.77 45.79 19.2 43.83 17.7 41.87 19.2 42.61 16.77 40.65 15.25 43.07 15.25 43.83 12.8"/><polygon class="cls-4" points="43.83 23.59 44.58 26.03 47.01 26.03 45.05 27.55 45.79 29.98 43.83 28.49 41.87 29.98 42.61 27.55 40.65 26.03 43.07 26.03 43.83 23.59"/><polygon class="cls-4" points="43.83 34.38 44.58 36.82 47.01 36.82 45.05 38.33 45.79 40.77 43.83 39.27 41.87 40.77 42.61 38.33 40.65 36.82 43.07 36.82 43.83 34.38"/><polygon class="cls-4" points="43.83 45.17 44.58 47.61 47.01 47.61 45.05 49.12 45.79 51.55 43.83 50.04 41.87 51.55 42.61 49.12 40.65 47.61 43.07 47.61 43.83 45.17"/><polygon class="cls-4" points="51.03 7.12 51.79 9.57 54.22 9.57 52.25 11.08 53.01 13.52 51.03 12.01 49.08 13.52 49.81 11.08 47.85 9.57 50.28 9.57 51.03 7.12"/><polygon class="cls-4" points="51.03 17.91 51.79 20.35 54.22 20.35 52.25 21.85 53.01 24.31 51.03 22.79 49.08 24.31 49.81 21.85 47.85 20.35 50.28 20.35 51.03 17.91"/><polygon class="cls-4" points="51.03 28.7 51.79 31.14 54.22 31.14 52.25 32.65 53.01 35.09 51.03 33.58 49.08 35.09 49.81 32.65 47.85 31.14 50.28 31.14 51.03 28.7"/><polygon class="cls-4" points="51.03 39.48 51.79 41.93 54.22 41.93 52.25 43.44 53.01 45.87 51.03 44.37 49.08 45.87 49.81 43.44 47.85 41.93 50.28 41.93 51.03 39.48"/><polygon class="cls-4" points="51.03 50.27 51.79 52.72 54.22 52.72 52.25 54.22 53.01 56.66 51.03 55.15 49.08 56.66 49.81 54.22 47.85 52.72 50.28 52.72 51.03 50.27"/><polygon class="cls-4" points="58.15 12.8 58.9 15.25 61.35 15.25 59.38 16.77 60.13 19.2 58.15 17.7 56.19 19.2 56.95 16.77 54.98 15.25 57.42 15.25 58.15 12.8"/><polygon class="cls-4" points="58.15 23.59 58.9 26.03 61.35 26.03 59.38 27.55 60.13 29.98 58.15 28.49 56.19 29.98 56.95 27.55 54.98 26.03 57.42 26.03 58.15 23.59"/><polygon class="cls-4" points="58.15 34.38 58.9 36.82 61.35 36.82 59.38 38.33 60.13 40.77 58.15 39.27 56.19 40.77 56.95 38.33 54.98 36.82 57.42 36.82 58.15 34.38"/><polygon class="cls-4" points="58.15 45.17 58.9 47.61 61.35 47.61 59.38 49.12 60.13 51.55 58.15 50.04 56.19 51.55 56.95 49.12 54.98 47.61 57.42 47.61 58.15 45.17"/><polygon class="cls-4" points="65.37 7.12 66.13 9.57 68.56 9.57 66.6 11.08 67.33 13.52 65.37 12.01 63.42 13.52 64.16 11.08 62.19 9.57 64.62 9.57 65.37 7.12"/><polygon class="cls-4" points="65.37 17.91 66.13 20.35 68.56 20.35 66.6 21.85 67.33 24.31 65.37 22.79 63.42 24.31 64.16 21.85 62.19 20.35 64.62 20.35 65.37 17.91"/><polygon class="cls-4" points="65.37 28.7 66.13 31.14 68.56 31.14 66.6 32.65 67.33 35.09 65.37 33.58 63.42 35.09 64.16 32.65 62.19 31.14 64.62 31.14 65.37 28.7"/><polygon class="cls-4" points="65.37 39.48 66.13 41.93 68.56 41.93 66.6 43.44 67.33 45.87 65.37 44.37 63.42 45.87 64.16 43.44 62.19 41.93 64.62 41.93 65.37 39.48"/><polygon class="cls-4" points="65.37 50.27 66.13 52.72 68.56 52.72 66.6 54.22 67.33 56.66 65.37 55.15 63.42 56.66 64.16 54.22 62.19 52.72 64.62 52.72 65.37 50.27"/><polygon class="cls-4" points="72.5 12.8 73.23 15.25 75.67 15.25 73.72 16.77 74.45 19.2 72.5 17.7 70.51 19.2 71.27 16.77 69.32 15.25 71.74 15.25 72.5 12.8"/><polygon class="cls-4" points="72.5 23.59 73.23 26.03 75.67 26.03 73.72 27.55 74.45 29.98 72.5 28.49 70.51 29.98 71.27 27.55 69.32 26.03 71.74 26.03 72.5 23.59"/><polygon class="cls-4" points="72.5 34.38 73.23 36.82 75.67 36.82 73.72 38.33 74.45 40.77 72.5 39.27 70.51 40.77 71.27 38.33 69.32 36.82 71.74 36.82 72.5 34.38"/><polygon class="cls-4" points="72.5 45.17 73.23 47.61 75.67 47.61 73.72 49.12 74.45 51.55 72.5 50.04 70.51 51.55 71.27 49.12 69.32 47.61 71.74 47.61 72.5 45.17"/><polygon class="cls-4" points="79.69 7.12 80.46 9.57 82.88 9.57 80.92 11.08 81.68 13.52 79.69 12.01 77.74 13.52 78.48 11.08 76.51 9.57 78.94 9.57 79.69 7.12"/><polygon class="cls-4" points="79.69 17.91 80.46 20.35 82.88 20.35 80.92 21.85 81.68 24.31 79.69 22.79 77.74 24.31 78.48 21.85 76.51 20.35 78.94 20.35 79.69 17.91"/><polygon class="cls-4" points="79.69 28.7 80.46 31.14 82.88 31.14 80.92 32.65 81.68 35.09 79.69 33.58 77.74 35.09 78.48 32.65 76.51 31.14 78.94 31.14 79.69 28.7"/><polygon class="cls-4" points="79.69 39.48 80.46 41.93 82.88 41.93 80.92 43.44 81.68 45.87 79.69 44.37 77.74 45.87 78.48 43.44 76.51 41.93 78.94 41.93 79.69 39.48"/><polygon class="cls-4" points="79.69 50.27 80.46 52.72 82.88 52.72 80.92 54.22 81.68 56.66 79.69 55.15 77.74 56.66 78.48 54.22 76.51 52.72 78.94 52.72 79.69 50.27"/></g></g></svg>